<svg width="22" height="21" viewBox="0 0 22 21" fill="none" xmlns="http://www.w3.org/2000/svg">
<path d="M9.05704 16.5222C8.00957 16.5222 7.15738 17.392 7.15738 18.4611C7.15738 19.5302 8.00957 20.4 9.05704 20.4C10.1045 20.4 10.9567 19.5302 10.9567 18.4611C10.9567 17.392 10.1045 16.5222 9.05704 16.5222ZM9.05704 19.3173C8.59442 19.3173 8.21806 18.9332 8.21806 18.461C8.21806 17.9888 8.59446 17.6047 9.05704 17.6047C9.51963 17.6047 9.89603 17.9889 9.89603 18.461C9.89603 18.9332 9.51963 19.3173 9.05704 19.3173Z" fill="#1E2025"/>
<path d="M15.7204 16.5222C14.6729 16.5222 13.8207 17.392 13.8207 18.4611C13.8207 19.5302 14.6729 20.4 15.7204 20.4C16.7678 20.4 17.62 19.5302 17.62 18.4611C17.62 17.392 16.7678 16.5222 15.7204 16.5222ZM15.7204 19.3173C15.2577 19.3173 14.8814 18.9332 14.8814 18.461C14.8814 17.9888 15.2578 17.6047 15.7204 17.6047C16.183 17.6047 16.5594 17.9889 16.5594 18.461C16.5594 18.9332 16.183 19.3173 15.7204 19.3173Z" fill="#1E2025"/>
<path d="M16.1881 6.31419H8.58801C8.2951 6.31419 8.05767 6.55652 8.05767 6.85548C8.05767 7.15443 8.29515 7.39677 8.58801 7.39677H16.1881C16.481 7.39677 16.7184 7.15443 16.7184 6.85548C16.7184 6.55648 16.481 6.31419 16.1881 6.31419Z" fill="#1E2025"/>
<path d="M15.7744 9.12505H9.0017C8.70879 9.12505 8.47136 9.36738 8.47136 9.66634C8.47136 9.9653 8.70879 10.2076 9.0017 10.2076H15.7744C16.0673 10.2076 16.3047 9.9653 16.3047 9.66634C16.3047 9.36743 16.0673 9.12505 15.7744 9.12505Z" fill="#1E2025"/>
<path d="M21.3613 3.90241C21.159 3.64905 20.8593 3.50377 20.5391 3.50377H4.01956L3.68594 1.85079C3.61629 1.50598 3.38586 1.21645 3.06941 1.07621L0.741634 0.0449542C0.472899 -0.0741892 0.160585 0.0516713 0.0440206 0.325869C-0.0726701 0.600153 0.050644 0.918959 0.319252 1.03793L2.64708 2.06923L5.21317 14.7828C5.31426 15.2835 5.75115 15.6469 6.25204 15.6469H18.9575C19.2504 15.6469 19.4878 15.4045 19.4878 15.1056C19.4878 14.8066 19.2504 14.5643 18.9575 14.5643H6.25208L5.93994 13.0178H19.0557C19.5566 13.0178 19.9935 12.6544 20.0945 12.1537L21.578 4.80466C21.6426 4.48465 21.5636 4.15572 21.3613 3.90241ZM19.0557 11.9353H5.72145L4.23809 4.58631L20.5391 4.58635L19.0557 11.9353Z" fill="#1E2025"/>
</svg>
