<svg width="126" height="118" viewBox="0 0 126 118" fill="none" xmlns="http://www.w3.org/2000/svg">
<path d="M52.8328 95.5697C46.7225 95.5697 41.7514 100.601 41.7514 106.785C41.7514 112.969 46.7225 118 52.8328 118C58.943 118 63.9141 112.969 63.9141 106.785C63.9139 100.601 58.9428 95.5697 52.8328 95.5697ZM52.8328 111.738C50.1341 111.738 47.9387 109.515 47.9387 106.784C47.9387 104.053 50.1343 101.831 52.8328 101.831C55.5312 101.831 57.7268 104.053 57.7268 106.784C57.7268 109.516 55.5312 111.738 52.8328 111.738Z" fill="#CEA851" fill-opacity="0.4"/>
<path d="M91.7022 95.5697C85.5919 95.5697 80.6208 100.601 80.6208 106.785C80.6208 112.969 85.5919 118 91.7022 118C97.8124 118 102.784 112.969 102.784 106.785C102.783 100.601 97.8122 95.5697 91.7022 95.5697ZM91.7022 111.738C89.0035 111.738 86.8081 109.515 86.8081 106.784C86.8081 104.053 89.0037 101.831 91.7022 101.831C94.4008 101.831 96.5962 104.053 96.5962 106.784C96.5962 109.516 94.4006 111.738 91.7022 111.738Z" fill="#CEA851" fill-opacity="0.4"/>
<path d="M94.4303 36.5232H50.0967C48.3881 36.5232 47.0031 37.925 47.0031 39.6542C47.0031 41.3835 48.3884 42.7852 50.0967 42.7852H94.4303C96.139 42.7852 97.524 41.3835 97.524 39.6542C97.524 37.9247 96.139 36.5232 94.4303 36.5232Z" fill="#CEA851" fill-opacity="0.4"/>
<path d="M92.0174 52.7821H52.5099C50.8013 52.7821 49.4163 54.1839 49.4163 55.9131C49.4163 57.6424 50.8013 59.0442 52.5099 59.0442H92.0171C93.7257 59.0442 95.1107 57.6424 95.1107 55.9131C95.1107 54.1841 93.7257 52.7821 92.0174 52.7821Z" fill="#CEA851" fill-opacity="0.4"/>
<path d="M124.608 22.5728C123.428 21.1073 121.68 20.2669 119.811 20.2669H23.4474L21.5013 10.7056C21.095 8.71105 19.7509 7.03634 17.9049 6.22514L4.3262 0.260029C2.75858 -0.429133 0.936744 0.298883 0.256787 1.88493C-0.423909 3.47147 0.295424 5.31555 1.8623 6.00372L15.4413 11.9691L30.4102 85.5082C30.9998 88.4044 33.5484 90.5065 36.4702 90.5065H110.585C112.294 90.5065 113.679 89.1047 113.679 87.3755C113.679 85.6462 112.294 84.2445 110.585 84.2445H36.4705L34.6496 75.2991H111.158C114.08 75.2991 116.629 73.197 117.218 70.3008L125.871 27.7917C126.248 25.9406 125.788 24.038 124.608 22.5728ZM111.158 69.0376H33.3751L24.7222 26.5287L119.811 26.5289L111.158 69.0376Z" fill="#CEA851" fill-opacity="0.4"/>
</svg>
