<svg width="37" height="37" viewBox="0 0 37 37" fill="none" xmlns="http://www.w3.org/2000/svg">
<path d="M34.5467 31.0321C35.3231 30.273 35.8064 29.2167 35.8064 28.0482C35.8064 26.0162 34.3473 24.3201 32.4221 23.9483C32.6077 23.2024 32.8226 21.8727 32.8226 19.6933C32.8226 17.2023 31.0006 15.153 30.1025 14.2924C30.3084 13.9355 30.4355 13.5273 30.4355 13.0869C30.4355 12.6059 30.2946 12.1404 30.0273 11.7394C29.5612 11.0411 28.8409 10.5953 28.0484 10.4605V9.09622C28.0484 8.45886 27.8001 7.85969 27.349 7.40793L26.23 6.28896C26.0969 5.43317 25.3611 4.77373 24.4677 4.77373C23.4807 4.77373 22.6774 5.577 22.6774 6.56408C22.6774 7.55115 23.4807 8.35442 24.4677 8.35442C25.0508 8.35442 25.564 8.07035 25.891 7.63769L26.5051 8.25178C26.7307 8.47796 26.8548 8.77754 26.8548 9.09622V10.4915L25.5443 10.7535C25.5085 10.7505 25.4739 10.7415 25.4381 10.7415H21.4636C21.136 10.7415 20.8698 10.4736 20.8698 10.1448V9.11174C20.8698 8.29415 20.5487 7.55473 20.0361 6.99495C21.2195 6.59869 22.0806 5.49226 22.0806 4.17695V3.58017H23.2742V2.3866H22.0019C21.7142 1.1256 20.6687 0.135541 19.3874 0.0132007C18.5525 -0.0655746 17.7099 0.210736 17.0892 0.774695C16.4686 1.33865 16.1129 2.14431 16.1129 2.98338V4.17695C16.1129 4.91278 16.391 5.57879 16.8344 6.09978C15.9852 6.3552 15.2637 6.96452 14.8818 7.79404L12.2154 13.5846C12.0322 13.9821 11.9355 14.4225 11.9355 14.8593C11.9355 15.5564 12.1754 16.1973 12.5746 16.7094H11.8251C11.8925 16.522 11.9355 16.3227 11.9355 16.1126V14.8593V8.9512C11.9355 7.96413 11.1322 7.16086 10.1452 7.16086H2.98387C1.99681 7.16086 1.19355 7.96413 1.19355 8.9512V16.1126C1.19355 17.0997 1.99681 17.9029 2.98387 17.9029H8.20803C7.93411 18.3296 7.75806 18.9049 7.75806 19.6933C7.75806 21.0689 9.09663 22.0022 10.514 22.9905C11.0087 23.3354 11.5088 23.684 11.9623 24.0534C11.5756 23.9352 11.1662 23.8708 10.7419 23.8708C8.43898 23.8708 6.56452 25.7446 6.56452 28.0482C6.56452 29.2167 7.0479 30.273 7.82431 31.0321H0V32.2257H15.5161V31.0321H13.6596C13.9651 30.7332 14.2253 30.3882 14.4288 30.0075C14.8609 30.2157 15.5758 30.4354 16.7097 30.4354C17.7218 30.4354 19.0365 30.3315 20.5595 30.2116C22.613 30.0492 25.1582 29.8493 27.861 29.8404C28.074 30.2868 28.3611 30.6902 28.7108 31.0321H23.871V32.2257H37V31.0321H34.5467ZM24.4677 7.16086C24.1383 7.16086 23.871 6.8929 23.871 6.56408C23.871 6.23525 24.1383 5.96729 24.4677 5.96729C24.7972 5.96729 25.0645 6.23525 25.0645 6.56408C25.0645 6.8929 24.7972 7.16086 24.4677 7.16086ZM18.5072 26.2579C18.2315 26.2507 17.9032 26.1415 17.9032 25.6611C17.9032 24.5517 18.5298 23.5389 19.1356 22.5596C19.4686 22.0219 19.7872 21.5003 20.0063 20.9698C20.174 21.3195 20.2712 21.6913 20.2712 22.087L20.2987 24.4675H20.2903V25.6611C20.2903 25.8712 20.3333 26.0705 20.4001 26.2579H18.5072ZM9.16287 20.2901C9.03039 20.0901 8.95161 19.8914 8.95161 19.6933C8.95161 18.0312 9.92436 17.9029 11.2987 17.9029H14.9086C16.4793 18.2324 18.0548 18.884 19.0884 19.7989C19.0771 19.9577 19.0425 20.1212 18.987 20.2901H9.16287ZM13.2072 14.3586L18.5871 15.6698C20.9957 16.2612 22.6774 18.3822 22.6774 20.8272V23.8708H21.4851L21.4648 22.0804C21.4648 19.1066 18.0208 17.2011 14.6078 16.6312C13.7509 16.4886 13.129 15.7432 13.129 14.8593C13.129 14.6905 13.1613 14.5228 13.2072 14.3586ZM21.4839 25.6611V25.0643H22.6774C23.156 25.0643 23.6412 25.3412 23.8322 25.7238C23.8578 25.7751 23.871 25.8324 23.871 25.8891C23.871 26.0926 23.7069 26.2579 23.5045 26.2579H22.0806C21.7512 26.2579 21.4839 25.9899 21.4839 25.6611ZM24.8998 25.1908C24.6838 24.757 24.3138 24.4055 23.871 24.1733V20.8272C23.871 18.1452 22.2215 15.7873 19.7646 14.8027L19.9639 14.2041C20.2599 14.2817 20.5636 14.3222 20.868 14.3222H23.6478C23.7582 14.3222 23.8674 14.3151 23.976 14.3061C24.2189 15.0073 24.8783 15.5158 25.6613 15.5158L24.8885 16.5459C24.6175 16.9081 24.4677 17.3569 24.4677 17.8092C24.4677 18.372 24.6945 18.9079 25.1057 19.3191C25.536 19.7488 26.2581 20.6792 26.2581 22.0804C26.2581 23.7991 25.5837 25.5495 25.2776 26.2579H25.0162C25.0448 26.1391 25.0645 26.0168 25.0645 25.8891C25.0645 25.648 25.0072 25.4063 24.8998 25.1908ZM25.9489 18.4741C25.7639 18.2885 25.6613 18.0527 25.6613 17.8092C25.6613 17.6135 25.7257 17.4189 25.8439 17.262L27.1532 15.5158H27.235C27.7106 15.9341 29.2419 17.4542 29.2419 19.6933C29.2419 22.2177 28.9364 24.1447 28.7693 25.0118C28.3939 25.3657 28.0854 25.7876 27.8604 26.2579H26.569C26.9402 25.3102 27.4516 23.7102 27.4516 22.0804C27.4516 20.2489 26.5105 19.035 25.9489 18.4741ZM28.7054 27.4514C28.783 27.0713 28.9346 26.718 29.1423 26.4053L30.0183 27.2814C29.9921 27.3369 29.9694 27.3936 29.9491 27.4514H28.7054ZM31.629 28.645C31.2996 28.645 31.0323 28.3771 31.0323 28.0482C31.0323 27.7194 31.2996 27.4514 31.629 27.4514C31.9585 27.4514 32.2258 27.7194 32.2258 28.0482C32.2258 28.3771 31.9585 28.645 31.629 28.645ZM32.2258 29.7288C32.2843 29.7079 32.341 29.6858 32.3959 29.6595L33.2719 30.5356C32.9592 30.7433 32.606 30.8949 32.2258 30.9725V29.7288ZM34.1158 29.6912L33.2397 28.8151C33.266 28.7596 33.2887 28.7029 33.309 28.645H34.552C34.475 29.0252 34.3235 29.3785 34.1158 29.6912ZM33.3095 27.4514C33.2887 27.393 33.2666 27.3363 33.2403 27.2814L34.1164 26.4053C34.3241 26.718 34.4756 27.0713 34.5532 27.4514H33.3095ZM32.3959 26.4375C32.3404 26.4113 32.2837 26.3886 32.2258 26.3683V25.1252C32.606 25.2028 32.9592 25.3544 33.2719 25.562L32.3959 26.4375ZM31.0323 26.3677C30.9738 26.3886 30.9171 26.4107 30.8622 26.4369L29.9861 25.5608C30.2988 25.3532 30.6521 25.2016 31.0323 25.124V26.3677ZM29.9485 28.645C29.9694 28.7035 29.9915 28.7602 30.0177 28.8151L29.1417 29.6912C28.934 29.3785 28.7824 29.0252 28.7048 28.645H29.9485ZM30.8622 29.6589C30.9177 29.6852 30.9744 29.7073 31.0323 29.7282V30.9713C30.6521 30.8937 30.2988 30.7421 29.9861 30.5344L30.8622 29.6589ZM31.629 19.6933C31.629 22.0852 31.3551 23.3605 31.1994 23.8928C30.8234 23.9316 30.4641 24.0241 30.124 24.156C30.2791 23.0872 30.4355 21.5529 30.4355 19.6933C30.4355 17.7364 29.5206 16.263 28.7693 15.3809C28.9459 15.3219 29.1136 15.2467 29.27 15.1512C30.035 15.887 31.629 17.6636 31.629 19.6933ZM29.0343 12.4012C29.1703 12.6053 29.2419 12.8422 29.2419 13.0869C29.2419 13.7684 28.6875 14.3222 28.0066 14.3222H25.6613C25.4435 14.3222 25.2603 14.1987 25.1564 14.0239C25.6309 13.8275 26.0665 13.5375 26.4407 13.1627C26.7611 12.841 26.9091 12.3809 26.8363 11.9321C26.8244 11.8599 26.7987 11.7919 26.7761 11.7233L27.1962 11.6391C27.9093 11.4971 28.6308 11.7961 29.0343 12.4012ZM21.4636 11.9351H25.4381C25.4727 11.9351 25.5061 11.9435 25.5372 11.959C25.6261 12.0037 25.6511 12.0819 25.6583 12.1243C25.6655 12.1673 25.6667 12.249 25.5956 12.32C25.0753 12.8416 24.383 13.1287 23.6478 13.1287H20.868C19.8726 13.1287 19.1535 12.622 18.7799 11.7346L20.1793 11.3849C20.5046 11.7227 20.9587 11.9351 21.4636 11.9351ZM17.8925 1.65793C18.2696 1.31478 18.7566 1.15186 19.274 1.20139C19.9502 1.26644 20.5165 1.74447 20.7594 2.3866H17.4091C17.507 2.11029 17.6717 1.85905 17.8925 1.65793ZM17.3065 3.58017H20.8871V4.17695C20.8871 5.16403 20.0838 5.96729 19.0968 5.96729C18.1097 5.96729 17.3065 5.16403 17.3065 4.17695V3.58017ZM15.9655 8.29355C16.2824 7.60546 16.9752 7.16086 17.7314 7.16086C18.8038 7.16086 19.6762 8.03574 19.6762 9.11174V10.1448C19.6762 10.1901 19.6864 10.2325 19.6894 10.2767L18.5143 10.5703C18.503 10.4306 18.4881 10.294 18.4881 10.1448V9.54799H17.2945V10.1448C17.2945 11.8957 17.9569 13.0565 18.8742 13.701L18.6241 14.4505L13.6846 13.2468L15.9655 8.29355ZM5.96774 8.35442H7.16129V9.54799H5.96774V8.35442ZM2.3871 16.1126V8.9512C2.3871 8.62238 2.65445 8.35442 2.98387 8.35442H4.77419V10.7415H8.35484V8.35442H10.1452C10.4746 8.35442 10.7419 8.62238 10.7419 8.9512V16.1126C10.7419 16.4414 10.4746 16.7094 10.1452 16.7094H2.98387C2.65445 16.7094 2.3871 16.4414 2.3871 16.1126ZM12.4225 27.4514C12.4016 27.393 12.3795 27.3363 12.3532 27.2814L13.2293 26.4053C13.437 26.718 13.5885 27.0713 13.6661 27.4514H12.4225ZM11.3387 28.0482C11.3387 28.3771 11.0714 28.645 10.7419 28.645C10.4125 28.645 10.1452 28.3771 10.1452 28.0482C10.1452 27.7194 10.4125 27.4514 10.7419 27.4514C11.0714 27.4514 11.3387 27.7194 11.3387 28.0482ZM11.5088 26.4375C11.4533 26.4113 11.3966 26.3886 11.3387 26.3683V25.1252C11.7189 25.2028 12.0721 25.3544 12.3849 25.562L11.5088 26.4375ZM10.1452 26.3677C10.0867 26.3886 10.03 26.4107 9.97508 26.4369L9.09902 25.5608C9.41173 25.3532 9.76502 25.2016 10.1452 25.124V26.3677ZM9.13124 27.2814C9.10498 27.3369 9.08231 27.3936 9.06202 27.4514H7.81894C7.89652 27.0713 8.0481 26.718 8.25577 26.4053L9.13124 27.2814ZM9.06142 28.645C9.08231 28.7035 9.10439 28.7602 9.13064 28.8151L8.25458 29.6912C8.0469 29.3785 7.89532 29.0252 7.81774 28.645H9.06142ZM9.97508 29.6589C10.0306 29.6852 10.0873 29.7073 10.1452 29.7282V30.9713C9.76502 30.8937 9.41173 30.7421 9.09902 30.5344L9.97508 29.6589ZM11.3387 29.7288C11.3972 29.7079 11.4539 29.6858 11.5088 29.6595L12.3849 30.5356C12.0721 30.7433 11.7189 30.8949 11.3387 30.9725V29.7288ZM13.2287 29.6912L12.3526 28.8151C12.3789 28.7596 12.4016 28.7029 12.4219 28.645H13.6649C13.588 29.0252 13.4364 29.3785 13.2287 29.6912ZM14.9194 28.9219V26.9627C14.9194 24.6072 12.8551 23.1677 11.1973 22.0118C10.9419 21.8333 10.6912 21.6579 10.4531 21.4836H18.3944C18.3055 21.631 18.2141 21.7802 18.1205 21.9312C17.4592 23.0006 16.7097 24.2121 16.7097 25.6611C16.7097 26.524 17.1728 27.0206 17.6938 27.2635L16.9042 29.2376C16.8416 29.2382 16.7694 29.2418 16.7097 29.2418C15.7292 29.2418 15.1748 29.0466 14.9194 28.9219ZM20.4658 29.021C19.6428 29.086 18.8897 29.1439 18.2106 29.1851L18.904 27.4514H27.4994C27.4713 27.6472 27.4516 27.8453 27.4516 28.0482C27.4516 28.2529 27.4713 28.4528 27.5 28.6498C24.8879 28.6743 22.4489 28.8646 20.4658 29.021Z" fill="#CEA851"/>
<path d="M21.4839 31.0322H22.6774V32.2257H21.4839V31.0322Z" fill="#CEA851"/>
<path d="M0 35.8064H7.16129V37H0V35.8064Z" fill="#CEA851"/>
<path d="M10.7419 35.8064H17.9032V37H10.7419V35.8064Z" fill="#CEA851"/>
<path d="M8.35484 35.8064H9.54839V37H8.35484V35.8064Z" fill="#CEA851"/>
<path d="M19.0968 35.8064H37V37H19.0968V35.8064Z" fill="#CEA851"/>
<path d="M16.7097 31.0322H20.2903V32.2257H16.7097V31.0322Z" fill="#CEA851"/>
</svg>
