<svg width="37" height="37" viewBox="0 0 37 37" fill="none" xmlns="http://www.w3.org/2000/svg">
<path d="M12.4694 28.322C12.46 28.2758 12.4463 28.2302 12.4282 28.1861C12.4102 28.1428 12.3878 28.1009 12.3618 28.0618C12.3357 28.0221 12.3054 27.9852 12.2722 27.952C12.2389 27.9187 12.2021 27.8884 12.1623 27.8624C12.1233 27.8363 12.0814 27.8139 12.0373 27.7959C11.9939 27.7778 11.9484 27.7633 11.9022 27.7547C11.8089 27.7359 11.7128 27.7359 11.6203 27.7547C11.5741 27.7633 11.5285 27.7778 11.4845 27.7959C11.4411 27.8139 11.3992 27.8363 11.3602 27.8624C11.3204 27.8884 11.2836 27.9187 11.2503 27.952C11.2171 27.9852 11.1867 28.0221 11.1607 28.0618C11.134 28.1009 11.1123 28.1428 11.0942 28.1861C11.0762 28.2302 11.0617 28.2758 11.053 28.322C11.0436 28.3683 11.0386 28.416 11.0386 28.4629C11.0386 28.5099 11.0436 28.5576 11.053 28.6039C11.0617 28.6501 11.0762 28.6957 11.0942 28.739C11.1123 28.7831 11.134 28.825 11.1607 28.864C11.1867 28.9038 11.2171 28.9407 11.2503 28.9739C11.2836 29.0071 11.3204 29.0375 11.3602 29.0635C11.3992 29.0896 11.4411 29.112 11.4845 29.1301C11.5285 29.1481 11.5741 29.1626 11.6203 29.1713C11.6666 29.1807 11.7143 29.1857 11.7612 29.1857C11.8082 29.1857 11.8559 29.1807 11.9022 29.1713C11.9484 29.1626 11.9939 29.1481 12.0373 29.1301C12.0814 29.112 12.1233 29.0895 12.1623 29.0635C12.2021 29.0375 12.2389 29.0071 12.2722 28.9739C12.3054 28.9407 12.3357 28.9038 12.3618 28.864C12.3878 28.825 12.4102 28.7831 12.4282 28.739C12.4463 28.6957 12.46 28.6501 12.4694 28.6039C12.4788 28.5576 12.4839 28.5099 12.4839 28.4629C12.4839 28.416 12.4788 28.3683 12.4694 28.322Z" fill="#CEA851"/>
<path d="M33.2417 28.5445C33.2389 28.5373 33.236 28.5302 33.2329 28.5231C32.5678 26.9666 31.0079 26.3913 29.1618 27.0218L24.1272 28.4142C23.8361 27.5327 23.11 26.7825 22.0834 26.4015C22.0771 26.3991 22.0707 26.3968 22.0643 26.3947L16.5301 24.5162C16.0695 23.9207 14.6266 22.3971 11.9251 22.3971C10.0372 22.3971 8.36706 23.6923 7.41156 25.1042H0.722656C0.323533 25.1042 0 25.4277 0 25.8269V34.9387C0 35.3379 0.323533 35.6615 0.722656 35.6615H5.01935C5.41848 35.6615 5.74201 35.3379 5.74201 34.9387V34.3147H7.75699C8.15612 34.3147 8.47965 33.9912 8.47965 33.592V33.384C9.65426 33.4865 10.0406 33.7093 11.1194 34.3314C11.949 34.8099 13.2029 35.533 15.4609 36.5483C15.4714 36.553 15.482 36.5575 15.4926 36.5617C15.926 36.7322 16.7731 37 17.8176 37C18.5446 37 19.3673 36.8701 20.2118 36.4873L31.3401 32.5025C31.3599 32.4954 31.3794 32.4875 31.3985 32.4787C32.462 31.9893 34.0469 30.6101 33.2417 28.5445ZM4.2967 34.2159H1.44531V26.5495H4.2967V34.2159ZM7.03434 32.8692H5.74201V26.5495H7.03434V32.8692ZM30.821 31.153L19.6977 35.136C19.688 35.1394 19.6748 35.1446 19.6651 35.1485C19.6554 35.1525 19.6456 35.1567 19.636 35.1611C18.0869 35.8731 16.6143 35.4469 16.0372 35.2225C13.8561 34.2409 12.6919 33.5696 11.8414 33.0791C10.6588 32.3971 10.089 32.0685 8.47965 31.9355V26.1146C9.16466 24.9918 10.493 23.8424 11.9252 23.8424C14.3812 23.8424 15.4219 25.44 15.4628 25.5045C15.5511 25.648 15.6867 25.7562 15.8462 25.8103L21.5895 27.7598C22.5068 28.1041 22.9915 28.8897 22.7687 29.6731C22.6659 30.0349 22.4283 30.335 22.0998 30.5181C21.7741 30.6995 21.3976 30.7444 21.0387 30.6451L14.5642 28.5932C14.1835 28.4726 13.7775 28.6833 13.657 29.0638C13.5364 29.4443 13.7471 29.8505 14.1276 29.9711L20.6133 32.0266C20.6202 32.0288 20.6271 32.0309 20.634 32.0328C20.8929 32.1065 21.1566 32.1429 21.4186 32.1429C21.8983 32.1429 22.3727 32.0207 22.8033 31.7807C23.4691 31.4098 23.9505 30.8017 24.1589 30.0685C24.1755 30.0099 24.1903 29.9514 24.2031 29.8928L29.629 28.3896C30.4126 28.1219 31.4413 28.0254 31.8994 29.0804C32.3734 30.3189 31.1413 31.0002 30.821 31.153Z" fill="#CEA851"/>
<path d="M25.9477 9.50529C25.9383 9.45903 25.9246 9.4135 25.9058 9.36942C25.8877 9.32605 25.866 9.28413 25.8393 9.24511C25.8133 9.20536 25.7829 9.1685 25.7497 9.13525C25.7165 9.10201 25.6796 9.07165 25.6398 9.04564C25.6008 9.01962 25.5589 8.99721 25.5156 8.97915C25.4715 8.96108 25.4259 8.94662 25.3804 8.93795C25.2872 8.91916 25.1911 8.91916 25.0979 8.93795C25.0516 8.94662 25.0061 8.96108 24.9627 8.97915C24.9186 8.99721 24.8767 9.01962 24.8377 9.04564C24.798 9.07165 24.7611 9.10201 24.7279 9.13525C24.6946 9.1685 24.6643 9.20536 24.6382 9.24511C24.6122 9.28413 24.5898 9.32605 24.5718 9.36942C24.5537 9.4135 24.5392 9.45903 24.5306 9.50529C24.5212 9.55154 24.5161 9.59924 24.5161 9.64622C24.5161 9.69319 24.5212 9.74089 24.5306 9.78715C24.5392 9.8334 24.5537 9.87893 24.5718 9.9223C24.5898 9.96638 24.6122 10.0083 24.6382 10.0473C24.6643 10.0871 24.6946 10.1239 24.7279 10.1572C24.7611 10.1904 24.798 10.2208 24.8377 10.2468C24.8767 10.2728 24.9186 10.2952 24.9627 10.3133C25.0061 10.3314 25.0516 10.3451 25.0979 10.3545C25.1441 10.3639 25.1918 10.3689 25.2388 10.3689C25.2857 10.3689 25.3334 10.3639 25.3804 10.3545C25.4259 10.3451 25.4715 10.3314 25.5156 10.3133C25.5589 10.2952 25.6008 10.2728 25.6398 10.2468C25.6796 10.2208 25.7165 10.1904 25.7497 10.1572C25.7829 10.1239 25.8133 10.0871 25.8393 10.0473C25.866 10.0083 25.8877 9.96638 25.9058 9.9223C25.9246 9.87893 25.9383 9.8334 25.9477 9.78715C25.9571 9.74089 25.9614 9.69319 25.9614 9.64622C25.9614 9.59924 25.9571 9.55154 25.9477 9.50529Z" fill="#CEA851"/>
<path d="M36.2773 2.44769H31.9806C31.5815 2.44769 31.258 2.77125 31.258 3.17041V3.79441H29.243C28.8439 3.79441 28.5203 4.11797 28.5203 4.51713V4.72513C27.3457 4.62257 26.9594 4.39983 25.8807 3.77771C25.0511 3.29927 23.7972 2.57619 21.5391 1.56084C21.5286 1.55607 21.5181 1.55166 21.5073 1.54747C20.7723 1.25824 18.8459 0.689168 16.7884 1.62169L13.8805 2.66299L11.4293 0.211667C11.1471 -0.0705555 10.6895 -0.0705555 10.4073 0.211667L2.35994 8.25966C2.09963 8.52006 2.0497 8.97154 2.35994 9.2818L16.1112 23.0342C16.3312 23.2544 16.8465 23.3209 17.1332 23.0342L24.4801 15.6868C24.6711 15.7032 24.8693 15.7121 25.0748 15.7121C26.9628 15.7121 28.6329 14.4169 29.5883 13.0051H36.2773C36.6765 13.0051 37 12.6815 37 12.2824V3.17041C37 2.77125 36.6765 2.44769 36.2773 2.44769ZM10.9182 1.74477L12.5653 3.392C12.0757 3.69482 11.5096 3.85685 10.9182 3.85685C10.3267 3.85685 9.76074 3.69489 9.27114 3.392L10.9182 1.74477ZM5.54006 10.418L3.89298 8.77069L5.54006 7.12347C5.84285 7.61311 6.00487 8.17922 6.00487 8.77069C6.00487 9.36217 5.84293 9.92828 5.54006 10.418ZM16.6222 21.501L14.9754 19.8541C15.9809 19.2336 17.2634 19.2336 18.2689 19.8541L16.6222 21.501ZM19.3101 18.813C17.7132 17.6544 15.5312 17.6544 13.9343 18.813L6.58119 11.4591C7.14552 10.6829 7.45019 9.75056 7.45019 8.77069C7.45019 7.79076 7.14559 6.85845 6.58119 6.08225L8.23008 4.43329C9.00621 4.99766 9.93844 5.30236 10.9183 5.30236C11.8981 5.30236 12.8304 4.99766 13.6065 4.43329L15.1695 5.99646C14.8323 6.04626 14.5034 6.15741 14.1967 6.32833C13.6787 6.61699 13.2723 7.04925 13.0192 7.57221C12.204 7.72318 11.4494 8.11786 10.8574 8.70984C9.25127 10.3162 9.25127 12.9297 10.8574 14.536C11.6605 15.3391 12.7153 15.7408 13.7703 15.7408C14.8251 15.7408 15.8801 15.3392 16.6831 14.536C17.2056 14.0135 17.5717 13.3713 17.755 12.6714L20.195 13.4996C19.9203 14.7722 20.2016 16.1109 20.9605 17.1625L19.3101 18.813ZM14.9165 11.7077C14.9229 11.71 14.9293 11.7123 14.9357 11.7145L16.3807 12.205C16.2716 12.6975 16.0247 13.1504 15.6612 13.514C14.6185 14.5566 12.922 14.5567 11.8795 13.514C10.8368 12.4713 10.8368 10.7747 11.8795 9.73198C12.131 9.48033 12.4278 9.28368 12.7512 9.15034C12.8846 10.2606 13.6839 11.2502 14.9165 11.7077ZM22.0018 16.121C21.7228 15.6665 21.565 15.1476 21.54 14.6181C21.8862 14.8684 22.3092 15.1136 22.8145 15.3082L22.0018 16.121ZM28.5203 11.9942C27.8353 13.1172 26.5069 14.2665 25.0748 14.2665C24.8068 14.2665 24.5557 14.2475 24.3209 14.2135C24.32 14.2134 24.319 14.2132 24.3181 14.2131C22.7574 13.9863 21.9179 13.0993 21.6412 12.748C21.6265 12.7264 21.5637 12.6442 21.5544 12.6305C21.4702 12.4801 21.3321 12.3591 21.1561 12.2993L15.4104 10.349C14.4935 10.0049 14.0088 9.21965 14.231 8.43651C14.2311 8.436 14.2312 8.4355 14.2314 8.43499C14.2316 8.43441 14.2317 8.43376 14.2319 8.43318C14.3352 8.07255 14.5723 7.77341 14.9001 7.59078C15.2258 7.40931 15.6022 7.36428 15.9612 7.4638L22.4357 9.51567C22.8163 9.63644 23.2224 9.42555 23.3429 9.04504C23.4635 8.66453 23.2528 8.25836 22.8723 8.13774L17.723 6.50583L17.6781 6.46088C17.6777 6.46045 17.6772 6.45994 17.6767 6.45951L15.0108 3.79339L17.3022 2.97282C17.31 2.97 17.3195 2.96646 17.3272 2.96335C17.3291 2.96256 17.3329 2.96111 17.3348 2.96032C17.3446 2.95634 17.3543 2.95215 17.3639 2.94774C18.913 2.23572 20.3855 2.6619 20.9626 2.88638C23.1438 3.86791 24.308 4.53924 25.1586 5.02975C26.3412 5.71178 26.911 6.0404 28.5203 6.17331V11.9942ZM31.258 11.5595H29.9657V5.23985H31.258V11.5595ZM35.5547 11.5595H32.7033V3.89313H35.5547V11.5595Z" fill="#CEA851"/>
</svg>
