<svg width="28" height="26" viewBox="0 0 28 26" fill="none" xmlns="http://www.w3.org/2000/svg">
<path d="M11.7406 21.0577C10.3828 21.0577 9.27809 22.1663 9.27809 23.5289C9.27809 24.8915 10.3828 26 11.7406 26C13.0985 26 14.2031 24.8915 14.2031 23.5289C14.2031 22.1663 13.0984 21.0577 11.7406 21.0577ZM11.7406 24.6201C11.1409 24.6201 10.653 24.1305 10.653 23.5288C10.653 22.927 11.141 22.4374 11.7406 22.4374C12.3403 22.4374 12.8282 22.927 12.8282 23.5288C12.8282 24.1306 12.3403 24.6201 11.7406 24.6201Z" fill="#CEA851"/>
<path d="M20.3783 21.0577C19.0204 21.0577 17.9157 22.1663 17.9157 23.5289C17.9157 24.8915 19.0204 26 20.3783 26C21.7361 26 22.8408 24.8915 22.8408 23.5289C22.8407 22.1663 21.736 21.0577 20.3783 21.0577ZM20.3783 24.6201C19.7786 24.6201 19.2907 24.1305 19.2907 23.5288C19.2907 22.927 19.7786 22.4374 20.3783 22.4374C20.978 22.4374 21.4658 22.927 21.4658 23.5288C21.4658 24.1306 20.9779 24.6201 20.3783 24.6201Z" fill="#CEA851"/>
<path d="M20.9845 8.04749H11.1326C10.7529 8.04749 10.4451 8.35635 10.4451 8.73737C10.4451 9.11839 10.753 9.42725 11.1326 9.42725H20.9845C21.3642 9.42725 21.672 9.11839 21.672 8.73737C21.672 8.35629 21.3642 8.04749 20.9845 8.04749Z" fill="#CEA851"/>
<path d="M20.4483 11.63H11.6689C11.2892 11.63 10.9814 11.9388 10.9814 12.3198C10.9814 12.7009 11.2892 13.0097 11.6689 13.0097H20.4482C20.8279 13.0097 21.1357 12.7009 21.1357 12.3198C21.1357 11.9389 20.8279 11.63 20.4483 11.63Z" fill="#CEA851"/>
<path d="M27.6906 4.97366C27.4284 4.65075 27.0399 4.46559 26.6248 4.46559H5.21054L4.77808 2.35885C4.68779 1.91938 4.38908 1.55038 3.97887 1.37164L0.961377 0.0572946C0.613017 -0.0945548 0.208165 0.0658555 0.0570637 0.415323C-0.094202 0.764901 0.0656497 1.17122 0.413845 1.32285L3.43139 2.63725L6.75782 18.8408C6.88885 19.4789 7.45519 19.9421 8.1045 19.9421H24.5745C24.9542 19.9421 25.262 19.6332 25.262 19.2522C25.262 18.8712 24.9542 18.5623 24.5745 18.5623H8.10455L7.69992 16.5913H24.7018C25.3511 16.5913 25.9175 16.1281 26.0485 15.49L27.9714 6.12359C28.0552 5.71573 27.9528 5.29651 27.6906 4.97366ZM24.7018 15.2117H7.41669L5.49383 5.8453L26.6247 5.84535L24.7018 15.2117Z" fill="#CEA851"/>
</svg>
